<svg width="1440" height="1710" viewBox="0 0 1440 1710" fill="none" xmlns="http://www.w3.org/2000/svg">
<path d="M0 0L34.3 63.4959C68.7 127.114 137.3 254.106 205.8 284.015C274.3 313.802 342.7 246.384 411.2 213.533C479.7 180.559 548.3 182.275 617 152.856C685.7 123.437 754.3 62.883 823 95.9793C891.7 129.076 960.3 255.822 1028.8 282.912C1097.3 310.125 1165.7 237.803 1234.2 229.59C1302.7 221.5 1371.3 277.396 1405.7 305.467L1440 333.415V1709.98H1405.7C1371.3 1709.98 1302.7 1709.98 1234.2 1709.98C1165.7 1709.98 1097.3 1709.98 1028.8 1709.98C960.3 1709.98 891.7 1709.98 823 1709.98C754.3 1709.98 685.7 1709.98 617 1709.98C548.3 1709.98 479.7 1709.98 411.2 1709.98C342.7 1709.98 274.3 1709.98 205.8 1709.98C137.3 1709.98 68.7 1709.98 34.3 1709.98H0V0Z" fill="#0DF0FF"/>
<path d="M0 322.383L34.3 326.428C68.7 330.595 137.3 338.686 205.8 303.138C274.3 267.59 342.7 188.404 411.2 191.223C479.7 194.043 548.3 279.112 617 269.674C685.7 260.235 754.3 156.533 823 178.352C891.7 200.171 960.3 347.757 1028.8 413.091C1097.3 478.426 1165.7 461.755 1234.2 410.272C1302.7 358.789 1371.3 272.493 1405.7 229.468L1440 186.32V1709.98H1405.7C1371.3 1709.98 1302.7 1709.98 1234.2 1709.98C1165.7 1709.98 1097.3 1709.98 1028.8 1709.98C960.3 1709.98 891.7 1709.98 823 1709.98C754.3 1709.98 685.7 1709.98 617 1709.98C548.3 1709.98 479.7 1709.98 411.2 1709.98C342.7 1709.98 274.3 1709.98 205.8 1709.98C137.3 1709.98 68.7 1709.98 34.3 1709.98H0V322.383Z" fill="#00EBFF"/>
<path d="M0 250.061L34.3 256.803C68.7 263.545 137.3 277.028 205.8 320.912C274.3 364.918 342.7 439.2 411.2 415.175C479.7 391.027 548.3 268.448 617 213.9C685.7 159.353 754.3 172.836 823 205.933C891.7 239.029 960.3 291.738 1028.8 349.963C1097.3 408.188 1165.7 471.929 1234.2 433.071C1302.7 394.336 1371.3 252.88 1405.7 182.275L1440 111.547V1709.98H1405.7C1371.3 1709.98 1302.7 1709.98 1234.2 1709.98C1165.7 1709.98 1097.3 1709.98 1028.8 1709.98C960.3 1709.98 891.7 1709.98 823 1709.98C754.3 1709.98 685.7 1709.98 617 1709.98C548.3 1709.98 479.7 1709.98 411.2 1709.98C342.7 1709.98 274.3 1709.98 205.8 1709.98C137.3 1709.98 68.7 1709.98 34.3 1709.98H0V250.061Z" fill="#00E5FF"/>
<path d="M0 669.281L34.3 676.391C68.7 683.623 137.3 697.842 205.8 655.797C274.3 613.753 342.7 515.199 411.2 485.658C479.7 455.994 548.3 495.219 617 532.973C685.7 570.85 754.3 607.134 823 553.812C891.7 500.49 960.3 357.563 1028.8 344.202C1097.3 330.963 1165.7 447.413 1234.2 510.541C1302.7 573.669 1371.3 583.476 1405.7 588.379L1440 593.282V1709.98H1405.7C1371.3 1709.98 1302.7 1709.98 1234.2 1709.98C1165.7 1709.98 1097.3 1709.98 1028.8 1709.98C960.3 1709.98 891.7 1709.98 823 1709.98C754.3 1709.98 685.7 1709.98 617 1709.98C548.3 1709.98 479.7 1709.98 411.2 1709.98C342.7 1709.98 274.3 1709.98 205.8 1709.98C137.3 1709.98 68.7 1709.98 34.3 1709.98H0V669.281Z" fill="#00DFFF"/>
<path d="M0 546.702L34.3 575.508C68.7 604.314 137.3 661.926 205.8 691.1C274.3 720.397 342.7 721.132 411.2 708.261C479.7 695.391 548.3 668.913 617 607.379C685.7 545.844 754.3 449.497 823 464.574C891.7 479.652 960.3 606.398 1028.8 622.701C1097.3 639.004 1165.7 545.109 1234.2 524.27C1302.7 503.432 1371.3 555.651 1405.7 581.882L1440 607.992V1709.98H1405.7C1371.3 1709.98 1302.7 1709.98 1234.2 1709.98C1165.7 1709.98 1097.3 1709.98 1028.8 1709.98C960.3 1709.98 891.7 1709.98 823 1709.98C754.3 1709.98 685.7 1709.98 617 1709.98C548.3 1709.98 479.7 1709.98 411.2 1709.98C342.7 1709.98 274.3 1709.98 205.8 1709.98C137.3 1709.98 68.7 1709.98 34.3 1709.98H0V546.702Z" fill="#00DAFF"/>
<path d="M0 940.181L34.3 899.73C68.7 859.279 137.3 778.377 205.8 740.132C274.3 702.01 342.7 706.423 411.2 726.648C479.7 746.874 548.3 782.912 617 791.492C685.7 800.073 754.3 781.196 823 783.035C891.7 784.873 960.3 807.428 1028.8 773.718C1097.3 740.009 1165.7 650.036 1234.2 648.688C1302.7 647.217 1371.3 734.248 1405.7 777.764L1440 821.279V1709.98H1405.7C1371.3 1709.98 1302.7 1709.98 1234.2 1709.98C1165.7 1709.98 1097.3 1709.98 1028.8 1709.98C960.3 1709.98 891.7 1709.98 823 1709.98C754.3 1709.98 685.7 1709.98 617 1709.98C548.3 1709.98 479.7 1709.98 411.2 1709.98C342.7 1709.98 274.3 1709.98 205.8 1709.98C137.3 1709.98 68.7 1709.98 34.3 1709.98H0V940.181Z" fill="#00D4FF"/>
<path d="M0 672.958L34.3 725.667C68.7 778.376 137.3 883.794 205.8 939.813C274.3 995.709 342.7 1002.33 411.2 965.922C479.7 929.516 548.3 850.33 617 835.131C685.7 820.053 754.3 869.085 823 864.549C891.7 860.137 960.3 802.034 1028.8 762.441C1097.3 722.848 1165.7 701.519 1234.2 690.487C1302.7 679.455 1371.3 678.72 1405.7 678.229L1440 677.862V1709.98H1405.7C1371.3 1709.98 1302.7 1709.98 1234.2 1709.98C1165.7 1709.98 1097.3 1709.98 1028.8 1709.98C960.3 1709.98 891.7 1709.98 823 1709.98C754.3 1709.98 685.7 1709.98 617 1709.98C548.3 1709.98 479.7 1709.98 411.2 1709.98C342.7 1709.98 274.3 1709.98 205.8 1709.98C137.3 1709.98 68.7 1709.98 34.3 1709.98H0V672.958Z" fill="#00CEFF"/>
<path d="M0 828.634L34.3 835.988C68.7 843.343 137.3 858.052 205.8 907.084C274.3 956.116 342.7 1039.47 411.2 1055.77C479.7 1072.2 548.3 1021.45 617 1001.71C685.7 981.857 754.3 992.889 823 1002.45C891.7 1012.13 960.3 1020.22 1028.8 1017.65C1097.3 1014.95 1165.7 1001.47 1234.2 987.741C1302.7 974.135 1371.3 960.161 1405.7 953.296L1440 946.309V1709.98H1405.7C1371.3 1709.98 1302.7 1709.98 1234.2 1709.98C1165.7 1709.98 1097.3 1709.98 1028.8 1709.98C960.3 1709.98 891.7 1709.98 823 1709.98C754.3 1709.98 685.7 1709.98 617 1709.98C548.3 1709.98 479.7 1709.98 411.2 1709.98C342.7 1709.98 274.3 1709.98 205.8 1709.98C137.3 1709.98 68.7 1709.98 34.3 1709.98H0V828.634Z" fill="#00C8FF"/>
<path d="M0 1153.47L34.3 1142.07C68.7 1130.55 137.3 1107.75 205.8 1077.1C274.3 1046.46 342.7 1007.97 411.2 1033.34C479.7 1058.71 548.3 1147.71 617 1180.44C685.7 1213.16 754.3 1189.38 823 1176.76C891.7 1164.13 960.3 1162.42 1028.8 1172.22C1097.3 1182.03 1165.7 1203.36 1234.2 1175.16C1302.7 1146.97 1371.3 1069.26 1405.7 1030.52L1440 991.664V1709.98H1405.7C1371.3 1709.98 1302.7 1709.98 1234.2 1709.98C1165.7 1709.98 1097.3 1709.98 1028.8 1709.98C960.3 1709.98 891.7 1709.98 823 1709.98C754.3 1709.98 685.7 1709.98 617 1709.98C548.3 1709.98 479.7 1709.98 411.2 1709.98C342.7 1709.98 274.3 1709.98 205.8 1709.98C137.3 1709.98 68.7 1709.98 34.3 1709.98H0V1153.47Z" fill="#00C2FF"/>
<path d="M0 1356.95L34.3 1361.61C68.7 1366.39 137.3 1375.7 205.8 1346.28C274.3 1316.87 342.7 1248.71 411.2 1242.09C479.7 1235.6 548.3 1290.76 617 1316.13C685.7 1341.38 754.3 1336.97 823 1322.87C891.7 1308.78 960.3 1285 1028.8 1266.49C1097.3 1247.85 1165.7 1234.37 1234.2 1245.4C1302.7 1256.43 1371.3 1291.98 1405.7 1309.76L1440 1327.53V1709.98H1405.7C1371.3 1709.98 1302.7 1709.98 1234.2 1709.98C1165.7 1709.98 1097.3 1709.98 1028.8 1709.98C960.3 1709.98 891.7 1709.98 823 1709.98C754.3 1709.98 685.7 1709.98 617 1709.98C548.3 1709.98 479.7 1709.98 411.2 1709.98C342.7 1709.98 274.3 1709.98 205.8 1709.98C137.3 1709.98 68.7 1709.98 34.3 1709.98H0V1356.95Z" fill="#00BCFF"/>
<path d="M0 1407.21L34.3 1393.72C68.7 1380.24 137.3 1353.27 205.8 1334.64C274.3 1316.13 342.7 1305.83 411.2 1334.52C479.7 1363.08 548.3 1430.5 617 1435.03C685.7 1439.44 754.3 1381.1 823 1379.99C891.7 1379.01 960.3 1435.4 1028.8 1462C1097.3 1488.48 1165.7 1485.29 1234.2 1451.09C1302.7 1417.01 1371.3 1352.05 1405.7 1319.56L1440 1287.08V1709.98H1405.7C1371.3 1709.98 1302.7 1709.98 1234.2 1709.98C1165.7 1709.98 1097.3 1709.98 1028.8 1709.98C960.3 1709.98 891.7 1709.98 823 1709.98C754.3 1709.98 685.7 1709.98 617 1709.98C548.3 1709.98 479.7 1709.98 411.2 1709.98C342.7 1709.98 274.3 1709.98 205.8 1709.98C137.3 1709.98 68.7 1709.98 34.3 1709.98H0V1407.21Z" fill="#1AB6FF"/>
<path d="M0 1519.98L34.3 1522.68C68.7 1525.25 137.3 1530.64 205.8 1542.66C274.3 1554.67 342.7 1573.55 411.2 1577.22C479.7 1580.9 548.3 1569.38 617 1567.78C685.7 1566.19 754.3 1574.28 823 1577.35C891.7 1580.41 960.3 1578.45 1028.8 1569.01C1097.3 1559.57 1165.7 1542.9 1234.2 1544.74C1302.7 1546.58 1371.3 1566.93 1405.7 1577.22L1440 1587.4V1709.98H1405.7C1371.3 1709.98 1302.7 1709.98 1234.2 1709.98C1165.7 1709.98 1097.3 1709.98 1028.8 1709.98C960.3 1709.98 891.7 1709.98 823 1709.98C754.3 1709.98 685.7 1709.98 617 1709.98C548.3 1709.98 479.7 1709.98 411.2 1709.98C342.7 1709.98 274.3 1709.98 205.8 1709.98C137.3 1709.98 68.7 1709.98 34.3 1709.98H0V1519.98Z" fill="#2DAFFF"/>
</svg>
