<?xml version="1.0" encoding="UTF-8" standalone="no"?>
<svg
   width="24"
   height="24"
   fill-rule="evenodd"
   fill="#5A5A66"
   version="1.1"
   id="svg4"
   sodipodi:docname="Medium.svg"
   inkscape:version="1.1.1 (3bf5ae0d25, 2021-09-20)"
   xmlns:inkscape="http://www.inkscape.org/namespaces/inkscape"
   xmlns:sodipodi="http://sodipodi.sourceforge.net/DTD/sodipodi-0.dtd"
   xmlns="http://www.w3.org/2000/svg"
   xmlns:svg="http://www.w3.org/2000/svg">
  <defs
     id="defs8" />
  <sodipodi:namedview
     id="namedview6"
     pagecolor="#ffffff"
     bordercolor="#666666"
     borderopacity="1.0"
     inkscape:pageshadow="2"
     inkscape:pageopacity="0.0"
     inkscape:pagecheckerboard="0"
     showgrid="false"
     inkscape:zoom="34.666667"
     inkscape:cx="11.985577"
     inkscape:cy="12.014423"
     inkscape:window-width="1920"
     inkscape:window-height="1017"
     inkscape:window-x="-8"
     inkscape:window-y="-8"
     inkscape:window-maximized="1"
     inkscape:current-layer="svg4" />
  <path
     d="M2.846 6.887c.03-.295-.083-.586-.303-.784l-2.24-2.7v-.403h6.958l5.378 11.795 4.728-11.795h6.633v.403l-1.916 1.837c-.165.126-.247.333-.213.538v13.498c-.034.204.048.411.213.537l1.871 1.837v.403h-9.412v-.403l1.939-1.882c.19-.19.19-.246.19-.537v-10.91l-5.389 13.688h-.728l-6.275-13.688v9.174c-.052.385.076.774.347 1.052l2.521 3.058v.404h-7.148v-.404l2.521-3.058c.27-.279.39-.67.325-1.052v-10.608z"
     id="path2"
     style="fill:#ffffff" />
</svg>
