<svg xmlns="http://www.w3.org/2000/svg" viewBox="0 0 255 236.4">
  <defs>
    <style>
      .a {
        fill: none;
      }

      .b, .c, .d, .f, .g, .k, .l {
        fill: #fff;
      }

      .b {
        opacity: 0.92;
      }

      .c {
        opacity: 0.84;
      }

      .d {
        opacity: 0.9;
      }

      .e {
        fill: #eae4e1;
      }

      .g {
        opacity: 0.08;
      }

      .h {
        fill: #ededed;
      }

      .i {
        fill: #f9efe8;
      }

      .j {
        fill: #f9f5f2;
      }

      .k {
        opacity: 0.8;
      }

      .l {
        opacity: 0.43;
      }
    </style>
  </defs>
  <g>
    <polygon class="a" points="175.3 172.6 180 211.9 175.35 172.6 175.3 172.6"/>
    <polygon class="a" points="98.72 140.64 107 158 98.8 140.6 98.72 140.64"/>
    <polygon class="a" points="156.3 140.6 156.28 140.64 176.2 149.7 148.02 157.97 148 158 176.3 149.7 156.3 140.6"/>
    <polygon class="b" points="146.58 70.11 147.15 70.62 242.3 0 161.2 30.3 161.3 30.3 146.58 70.11"/>
    <polygon class="b" points="108.39 70.29 93.8 30.3 12.6 0 107.9 70.73 108.39 70.29"/>
    <polygon class="c" points="180 211.9 236.7 227.5 253 172.2 206.5 172.2 180 211.9"/>
    <polygon class="c" points="2.1 172.2 18.3 227.5 75 211.9 48.5 172.2 2.1 172.2"/>
    <polygon class="d" points="108.88 72.77 107.98 72.09 71.8 102.7 56 126.6 112.3 129.1 108.88 72.77"/>
    <polygon class="b" points="107.9 70.73 108.8 71.4 108.39 70.29 107.9 70.73"/>
    <polygon class="d" points="107.9 70.73 108.8 71.4 108.39 70.29 107.9 70.73"/>
    <polygon class="b" points="108.8 71.4 107.98 72.09 108.88 72.77 108.8 71.4"/>
    <polygon class="d" points="108.8 71.4 107.98 72.09 108.88 72.77 108.8 71.4"/>
    <polygon class="d" points="146.1 71.45 142.8 129.1 199 126.6 183.1 102.7 146.13 71.43 146.1 71.45"/>
    <polygon class="b" points="146.1 71.4 146.1 71.45 146.13 71.43 146.1 71.4"/>
    <polygon class="d" points="146.1 71.4 146.1 71.45 146.13 71.43 146.1 71.4"/>
    <polygon class="b" points="146.58 70.11 146.1 71.4 147.15 70.62 146.58 70.11"/>
    <polygon class="d" points="146.58 70.11 146.1 71.4 147.15 70.62 146.58 70.11"/>
    <polygon class="e" points="79.64 172.63 75 211.9 108.8 195.4 79.64 172.63"/>
    <polygon class="e" points="146.1 195.4 180 211.9 175.3 172.6 146.1 195.4"/>
    <polygon class="f" points="148.8 217.5 148.5 226.8 180 211.9 146.1 195.4 148.8 217.5"/>
    <polygon class="f" points="106.3 217.5 108.8 195.4 75 211.9 106.5 226.8 106.3 217.5"/>
    <polygon class="g" points="78.8 149.7 107 158 98.72 140.64 78.8 149.7"/>
    <polygon class="g" points="156.28 140.64 148.02 157.97 176.2 149.7 156.28 140.64"/>
    <polygon class="h" points="79.6 172.6 48.5 172.2 75 211.9 79.64 172.63 79.6 172.6"/>
    <polygon class="h" points="175.35 172.6 180 211.9 206.5 172.2 175.35 172.6"/>
    <polygon class="h" points="148 158 148.02 157.97 156.28 140.64 156.3 140.6 176.3 149.7 199 126.6 142.8 129.1 148 158"/>
    <polygon class="h" points="98.72 140.64 98.8 140.6 107 158 112.3 129.1 56 126.6 78.8 149.7 98.72 140.64"/>
    <polygon class="i" points="78.8 149.7 56 126.6 79.6 172.6 78.8 149.7"/>
    <polygon class="i" points="175.3 172.6 199 126.6 176.3 149.7 175.3 172.6"/>
    <polygon class="i" points="113.6 192.1 113.5 147.3 112.3 129.1 107 158 113.6 192.1"/>
    <polygon class="i" points="142.8 129.1 141.5 147.3 141.3 192.1 148 158 142.8 129.1"/>
    <polygon class="j" points="176.3 149.7 148 158 141.3 192.1 146.1 195.4 175.3 172.6 176.3 149.7"/>
    <polygon class="j" points="107 158 78.8 149.7 79.6 172.6 79.64 172.63 108.8 195.4 113.6 192.1 107 158"/>
    <polygon class="k" points="148.8 217.5 146.3 215.3 108.6 215.3 106.3 217.5 106.5 226.8 75 211.9 86 220.9 108.3 236.4 146.6 236.4 169 220.9 180 211.9 148.5 226.8 148.8 217.5"/>
    <polygon class="g" points="113.6 192.1 108.8 195.4 106.3 217.5 108.6 215.3 146.3 215.3 148.8 217.5 146.1 195.4 141.3 192.1 113.6 192.1"/>
    <polygon class="l" points="146.1 71.4 146.13 71.43 183.1 102.7 235.4 118 247 104.5 242 100.9 250 93.6 243.8 88.8 251.8 82.7 246.5 78.7 255 37.9 242.3 0 147.15 70.62 146.1 71.4"/>
    <polygon class="l" points="107.98 72.09 108.8 71.4 107.9 70.73 12.6 0 0 37.9 8.5 78.7 3.1 82.7 11.1 88.8 5 93.6 13 100.9 8 104.5 19.5 118 71.8 102.7 107.98 72.09"/>
    <polygon class="j" points="183.1 102.7 199 126.6 175.3 172.6 175.35 172.6 206.5 172.2 253 172.2 235.4 118 183.1 102.7"/>
    <polygon class="j" points="79.6 172.6 56 126.6 71.8 102.7 19.5 118 2.1 172.2 48.5 172.2 79.6 172.6"/>
    <polygon class="j" points="108.8 71.4 108.88 72.77 112.3 129.1 113.5 147.3 113.6 192.1 141.3 192.1 141.5 147.3 142.8 129.1 146.1 71.45 146.1 71.4 146.58 70.11 161.3 30.3 161.2 30.3 93.8 30.3 108.39 70.29 108.8 71.4"/>
  </g>
</svg>
