<svg xmlns="http://www.w3.org/2000/svg" viewBox="0 0 553.59 491.68"><defs><style>.a{fill:#0a0a0a;}.b{fill:snow;}.c,.d{fill:#fff;}.d{opacity:0;}</style></defs><path class="a" d="M225.66,416.87" transform="translate(-233.83 -120.32)"/><path class="b" d="M283.83,257.86C316.91,276.7,349.9,295.7,383,314.54c2.86,1.63,4,3.47,4,6.8-.15,19.2-.07,38.4-.07,57.6,0,12.69,0,25.37,0,38.06h104c.66-3.16,1.33-6.32,2-9.48,1.41-6.72,2.88-13.42,4-20.19a5.18,5.18,0,0,0-2.09-4.21c-18.89-11.13-23.57-34.07-10.38-51.59,14.35-19,45.93-15.87,56.9,5.28,9.11,17.57,1.7,37.36-13.87,46.44-1.31.77-2.43,3.62-2.11,5.19q2.89,14.3,5.93,28.56H637.61c-2.1-1.67-2.93-3.68-2.92-6.81.14-35.68,0-71.36.17-107,0-4-1.24-6.34-4.74-8.37q-56.49-32.62-112.76-65.63c-4.63-2.72-8.11-2.71-12.71,0-30.3,17.87-60.81,35.4-91.12,53.27-4.26,2.5-7.36,2.53-11.66-.07-14.23-8.59-28.74-16.72-43.24-24.87-3.81-2.13-4.74-3.3-.2-6q74.13-43.32,148.17-86.79c1.62-.94,4.62-.77,6.41.07,4.91,2.31,9.51,5.26,14.23,8q76.8,44,153.58,88.14c3.92,2.26,7,2.44,11,0,8.55-5.32,17.42-10.11,26.1-15.22a40.78,40.78,0,0,0,4.65-3.7,45.5,45.5,0,0,0-4.52-3.35q-38.67-22.23-77.39-44.4-63-36.16-126-72.38c-3.19-1.84-6-2.16-9.37-.16q-110.83,65.24-221.8,130.25C278.78,254.69,280.14,255.76,283.83,257.86Z" transform="translate(-233.83 -120.32)"/><path class="c" d="M289.44,554.43v-83.2h14.12v83.2Zm0-70.08V471.23h56.37v13.12Zm0,35V506.21h45.82v13.12Zm0,35.1V541.3h56.37v13.13Z" transform="translate(-233.83 -120.32)"/><path class="c" d="M367.34,554.43v-83.2h14.12v83.2Zm13.3-30.88V510.42h15.94q6,0,9.28-3.36t3.32-9.47q0-6.33-3.32-9.78t-9.28-3.46H380.87l-1.4-13.12h17.11q13.23,0,20.48,6.56t7.23,18.63q0,12.88-7.23,20t-20.48,7.12Zm29.82,30.88-16.75-39.14h15.06l18.57,39.14Z" transform="translate(-233.83 -120.32)"/><path class="c" d="M482.68,555.6q-39.43,0-39.43-42.89,0-20.33,9.93-31.49t28.09-11.17a37.68,37.68,0,0,1,14.77,2.7,20.29,20.29,0,0,1,9.55,7.62l-8.67,10.37a17.71,17.71,0,0,0-6.71-5.45,20.29,20.29,0,0,0-8.82-1.94q-10.54,0-16.87,7.48t-6.33,21.29q0,30.12,26.48,30.12a42.5,42.5,0,0,0,16.76-3.51l2.7,12.89A58.55,58.55,0,0,1,482.68,555.6Z" transform="translate(-233.83 -120.32)"/><path class="c" d="M523.14,519.39v-13H583v13Z" transform="translate(-233.83 -120.32)"/><path class="c" d="M605.26,554.43V539.19q18.69-10.07,27.89-21t9.2-22.44q0-6.21-3.05-9.32T630,483.35a22.1,22.1,0,0,0-10.22,2.76,30.15,30.15,0,0,0-9.17,7.32L602,483.82a29.8,29.8,0,0,1,12-10,36.85,36.85,0,0,1,16.29-3.78q13.47,0,20.18,6.24t6.71,18.84a41.11,41.11,0,0,1-7.29,23q-7.3,11-22.24,21.15v15.12Zm3.51,0v-13h51.92v13Z" transform="translate(-233.83 -120.32)"/><path class="c" d="M711.23,555.6q-29,0-29-42.19,0-43.35,29-43.36t29,43.36Q740.23,555.61,711.23,555.6Zm0-12.83q14.24,0,14.23-29.36,0-30.52-14.23-30.52-14.41,0-14.42,30.52Q696.81,542.77,711.23,542.77Zm-.06-19.34a7.23,7.23,0,0,1-5.89-2.75,12.86,12.86,0,0,1,0-14.56,7.75,7.75,0,0,1,11.81,0,13,13,0,0,1,0,14.56A7.23,7.23,0,0,1,711.17,523.43Z" transform="translate(-233.83 -120.32)"/><rect class="d" x="12.5" y="309.18" width="528.59" height="170" rx="0.5"/><path class="c" d="M762.42,442V587H258.83V442H762.42m12-25H246.83a13,13,0,0,0-13,13V599a13,13,0,0,0,13,13H774.42a13,13,0,0,0,13-13V430a13,13,0,0,0-13-13Z" transform="translate(-233.83 -120.32)"/></svg>