<svg width="254" height="74" viewBox="0 0 254 74" fill="none" xmlns="http://www.w3.org/2000/svg">
<g clip-path="url(#clip0_355_302)">
<path d="M104.498 39.2358C104.512 40.0443 104.303 40.8411 103.894 41.5394C103.493 42.206 102.955 42.7806 102.316 43.2256C101.653 43.6857 100.918 44.0318 100.141 44.2494C99.3633 44.477 98.5573 44.5936 97.7469 44.5957C96.4816 44.6035 95.2288 44.347 94.069 43.8429C92.8993 43.3178 91.883 42.5043 91.1161 41.4791L93.7443 38.8293C94.2338 39.4661 94.8511 39.9943 95.5568 40.3801C96.2331 40.7478 96.9916 40.9394 97.762 40.9371C98.3537 40.9574 98.9409 40.8279 99.4687 40.5607C99.6792 40.4578 99.8553 40.2965 99.9759 40.0962C100.096 39.8958 100.156 39.665 100.148 39.4315C100.13 39.1439 100.029 38.8675 99.8578 38.6353C99.6864 38.4031 99.4518 38.2249 99.1818 38.1217C98.3151 37.6802 97.4037 37.332 96.463 37.0828C95.7792 36.8856 95.1125 36.6338 94.4692 36.33C93.8441 36.0313 93.2644 35.6461 92.7474 35.1858C92.2532 34.7465 91.8437 34.2209 91.539 33.635C91.2267 33.0088 91.0713 32.3166 91.0859 31.6175C91.0761 30.8257 91.2795 30.0458 91.675 29.3591C92.0626 28.692 92.5908 28.1167 93.2232 27.6728C93.8803 27.2096 94.6103 26.8585 95.3831 26.634C96.1791 26.3947 97.006 26.2729 97.8375 26.2726C99.0861 26.2419 100.325 26.4974 101.459 27.0194C102.593 27.5415 103.592 28.3162 104.378 29.2838L101.78 31.9036C101.308 31.2961 100.723 30.7849 100.058 30.398C99.4126 30.0362 98.6835 29.8494 97.9432 29.8559C97.6632 29.8595 97.3845 29.8949 97.1125 29.9614C96.8291 30.0275 96.5551 30.1286 96.2969 30.2625C96.0543 30.3843 95.8426 30.5593 95.6776 30.7744C95.5203 30.9769 95.4353 31.2259 95.4359 31.482C95.4359 31.9412 95.7456 32.3477 96.3573 32.6865C97.2001 33.1187 98.086 33.4618 99.0005 33.7103C99.7304 33.9243 100.438 34.2066 101.115 34.5534C101.748 34.8728 102.337 35.2726 102.867 35.7428C103.354 36.1677 103.758 36.678 104.06 37.2484C104.368 37.865 104.518 38.5475 104.498 39.2358Z" fill="#001924"/>
<path d="M121.355 44.1139H117.005V43.1805C116.268 43.6874 115.443 44.0548 114.573 44.2645C113.707 44.468 112.82 44.5691 111.93 44.5656C111.158 44.5714 110.392 44.4441 109.664 44.1892C109.001 43.9541 108.395 43.5851 107.882 43.1052C107.38 42.6359 106.984 42.0664 106.719 41.434C106.44 40.756 106.301 40.0288 106.311 39.296C106.29 38.3951 106.515 37.5055 106.96 36.7215C107.398 35.9808 108.003 35.3519 108.728 34.8846C109.528 34.3709 110.413 33.999 111.341 33.7856C112.395 33.5378 113.475 33.4165 114.558 33.4242H117.065C117.087 32.9699 117.009 32.5164 116.836 32.0951C116.664 31.6739 116.402 31.2952 116.068 30.9851C115.26 30.3351 114.235 30.0125 113.198 30.0818C112.56 30.0887 111.927 30.2006 111.325 30.413C110.606 30.6799 109.948 31.0897 109.392 31.6175L106.824 29.0279C107.754 28.1451 108.847 27.4499 110.042 26.9803C111.24 26.4902 112.522 26.2346 113.818 26.2275C114.92 26.2071 116.015 26.4015 117.042 26.7996C117.948 27.1459 118.767 27.687 119.439 28.3844C120.111 29.0818 120.621 29.9184 120.932 30.8346C121.275 32.0076 121.433 33.2266 121.4 34.448L121.355 44.1139ZM117.005 39.7628V36.5408H115.011C114.44 36.5373 113.869 36.5775 113.304 36.6612C112.823 36.728 112.355 36.8649 111.915 37.0678C111.547 37.2412 111.226 37.4993 110.978 37.8206C110.742 38.132 110.619 38.5144 110.631 38.9046C110.619 39.1939 110.678 39.4817 110.801 39.7437C110.925 40.0057 111.11 40.2343 111.341 40.4102C111.863 40.809 112.51 41.0116 113.168 40.9823C113.819 40.9824 114.467 40.8808 115.086 40.6812C115.759 40.4501 116.403 40.1419 117.005 39.7628Z" fill="#001924"/>
<path d="M134.465 23.0958C134.104 22.9545 133.729 22.8486 133.347 22.7797C132.998 22.7265 132.644 22.7013 132.29 22.7044C131.967 22.6702 131.641 22.7035 131.331 22.802C131.022 22.9005 130.736 23.0621 130.493 23.2765C130.074 23.8842 129.886 24.621 129.964 25.3542V26.7394H132.713V30.5034H129.964V44.0537H125.614V30.5034H123.5V26.7394H125.614V25.4145C125.614 23.2213 126.024 21.5551 126.845 20.4159C127.666 19.2766 129.108 18.6995 131.172 18.6844C132.284 18.6787 133.391 18.8204 134.465 19.106V23.0958Z" fill="#001924"/>
<path d="M153.225 35.3815C153.225 35.66 153.225 35.9536 153.179 36.2547C153.134 36.5559 153.111 36.8645 153.074 37.1882H139.102C139.262 37.6938 139.491 38.1751 139.782 38.6185C140.072 39.0664 140.434 39.4633 140.854 39.7929C141.288 40.1202 141.773 40.3745 142.289 40.5457C142.858 40.7405 143.455 40.8372 144.056 40.8318C144.859 40.8287 145.656 40.6913 146.413 40.4252C147.133 40.1904 147.8 39.817 148.376 39.3262L151.125 42.0663C150.057 42.8957 148.857 43.5419 147.576 43.9784C146.389 44.3523 145.15 44.5402 143.905 44.5355C141.427 44.549 139.044 43.5857 137.275 41.8555C136.448 41.0404 135.787 40.0743 135.326 39.01C134.848 37.8808 134.601 36.6675 134.601 35.4417C134.601 34.2159 134.848 33.0026 135.326 31.8734C135.792 30.7833 136.47 29.7958 137.32 28.9677C138.176 28.1373 139.18 27.4735 140.28 27.0104C141.424 26.5134 142.658 26.2572 143.905 26.2576C145.116 26.2545 146.316 26.4845 147.44 26.9351C148.555 27.3695 149.58 28.0078 150.461 28.8171C151.329 29.6307 152.028 30.6082 152.515 31.6928C153.014 32.8574 153.256 34.1154 153.225 35.3815ZM148.693 33.6952C148.382 32.6369 147.742 31.704 146.866 31.0303C146.017 30.3678 144.968 30.0121 143.89 30.0216C142.827 30.0152 141.793 30.3711 140.96 31.0303C140.088 31.7052 139.454 32.6382 139.148 33.6952H148.693Z" fill="#001924"/>
<path d="M172.739 35.4116C172.743 36.6033 172.533 37.7861 172.12 38.9046C171.726 39.9733 171.134 40.959 170.375 41.8104C169.629 42.644 168.723 43.3198 167.71 43.7977C166.651 44.3005 165.491 44.5579 164.319 44.5505C163.589 44.556 162.863 44.4494 162.166 44.2344C161.486 44.0145 160.851 43.6726 160.293 43.2256V44.129H155.943V19.1361H160.324V27.5674C160.864 27.147 161.471 26.8211 162.121 26.6039C162.825 26.361 163.566 26.2389 164.311 26.2425C165.388 26.2443 166.451 26.4861 167.423 26.9502C168.431 27.427 169.343 28.0854 170.111 28.8924C170.912 29.7392 171.551 30.7237 171.999 31.7982C172.485 32.9414 172.737 34.17 172.739 35.4116ZM168.329 35.4116C168.338 34.6634 168.215 33.9193 167.966 33.2134C167.744 32.5842 167.397 32.0057 166.947 31.5121C166.518 31.0406 165.989 30.6703 165.399 30.4281C164.768 30.1715 164.093 30.0435 163.412 30.0517C162.867 30.0673 162.328 30.1637 161.811 30.3377C161.268 30.4998 160.757 30.7545 160.301 31.0905V39.4616C161.163 40.2908 162.313 40.7549 163.511 40.7565C164.173 40.7628 164.829 40.6294 165.436 40.365C166.013 40.1107 166.528 39.7359 166.947 39.2659C167.385 38.7721 167.726 38.1999 167.951 37.5797C168.206 36.8853 168.334 36.151 168.329 35.4116Z" fill="#001924"/>
<path d="M187.994 28.516L185.668 32.1896C185.248 31.7319 184.776 31.3228 184.264 30.9701C183.812 30.6387 183.269 30.4546 182.708 30.4431C182.391 30.451 182.079 30.5174 181.787 30.6389C181.43 30.7829 181.11 31.004 180.85 31.2863C180.523 31.6294 180.266 32.0336 180.095 32.4757C179.876 33.0576 179.774 33.6764 179.793 34.2975V44.0838H175.443V26.7093H179.793V28.5762C180.251 27.894 180.842 27.3104 181.53 26.8598C182.167 26.4589 182.906 26.2497 183.66 26.2576C184.456 26.2613 185.238 26.4742 185.925 26.8749C186.693 27.3156 187.391 27.8688 187.994 28.516Z" fill="#001924"/>
<path d="M194.066 23.668H189.535V19.1512H194.066V23.668ZM194.006 44.1139H189.596V26.6791H194.006V44.1139Z" fill="#001924"/>
<path d="M214.185 44.1139H209.745V43.2106C209.2 43.6598 208.575 44.0021 207.902 44.2193C207.218 44.4327 206.504 44.5394 205.787 44.5355C204.617 44.5428 203.46 44.2854 202.404 43.7827C201.392 43.3065 200.488 42.6304 199.746 41.7953C198.987 40.9456 198.397 39.9594 198.009 38.8895C197.592 37.7721 197.382 36.5886 197.389 35.3965C197.377 34.1516 197.618 32.917 198.099 31.7681C198.544 30.6921 199.184 29.7071 199.987 28.8623C200.754 28.0533 201.666 27.3946 202.676 26.92C203.647 26.4543 204.71 26.2124 205.787 26.2124C206.523 26.2106 207.255 26.3119 207.962 26.5135C208.61 26.6899 209.223 26.9751 209.775 27.3567V19.0759H214.185V44.1139ZM209.805 39.4466V31.0755C209.582 30.9215 209.347 30.7855 209.103 30.669C208.84 30.5373 208.567 30.4266 208.287 30.3377C208.01 30.2498 207.727 30.1795 207.441 30.127C207.192 30.0792 206.94 30.054 206.686 30.0517C206.005 30.0441 205.33 30.1721 204.7 30.4281C204.108 30.675 203.575 31.0445 203.137 31.5121C202.684 32.0053 202.335 32.5837 202.109 33.2134C201.86 33.9193 201.738 34.6634 201.747 35.4116C201.739 36.145 201.861 36.874 202.109 37.5646C202.332 38.1845 202.67 38.7567 203.106 39.2509C203.526 39.7193 204.041 40.0938 204.617 40.3499C205.473 40.7192 206.42 40.8304 207.339 40.6699C208.258 40.5093 209.11 40.0841 209.79 39.4466H209.805Z" fill="#001924"/>
<path d="M233.851 30.142H231.993C232.453 31.0365 232.691 32.0277 232.688 33.0327C232.685 33.8062 232.536 34.5722 232.25 35.2911C231.954 36.0271 231.529 36.705 230.996 37.2936C230.426 37.9021 229.757 38.4111 229.018 38.7992C228.203 39.2318 227.319 39.5172 226.405 39.6423C225.875 39.6938 225.361 39.8526 224.894 40.109C224.562 40.3198 224.396 40.5306 224.396 40.7414C224.396 40.9522 224.562 41.1479 224.894 41.3286C225.369 41.5465 225.882 41.6693 226.405 41.6899C228.274 41.7617 230.087 42.3451 231.646 43.3762C232.234 43.7892 232.712 44.3405 233.036 44.9812C233.36 45.622 233.521 46.3325 233.504 47.0498C233.507 47.8103 233.309 48.5581 232.93 49.2179C232.521 49.9066 231.961 50.4936 231.291 50.9343C230.501 51.4474 229.631 51.8241 228.716 52.0484C227.614 52.322 226.482 52.4536 225.347 52.4399C224.195 52.4545 223.045 52.3229 221.926 52.0484C221.006 51.827 220.128 51.4556 219.328 50.9493C218.648 50.5207 218.078 49.9378 217.667 49.248C217.287 48.5779 217.092 47.8195 217.1 47.0498C217.067 45.9542 217.435 44.884 218.135 44.0386C219.043 43.1002 220.219 42.464 221.503 42.2169C221.086 42.08 220.722 41.8169 220.461 41.4641C220.261 41.1892 220.16 40.8549 220.174 40.5156C220.206 40.1732 220.349 39.8506 220.582 39.5971C220.873 39.2806 221.243 39.0468 221.654 38.9196C221.114 38.6719 220.607 38.3583 220.144 37.9862C219.662 37.5979 219.228 37.1531 218.853 36.6612C218.463 36.1491 218.155 35.5804 217.939 34.975C217.712 34.3369 217.6 33.6643 217.606 32.9876C217.598 32.0694 217.805 31.1621 218.211 30.3377C218.607 29.52 219.161 28.7883 219.842 28.1847C221.3 26.9001 223.183 26.1977 225.128 26.2124C226.064 26.2042 226.994 26.357 227.877 26.6641H233.859L233.851 30.142ZM229.169 47.095C229.166 46.7647 229.062 46.4432 228.87 46.1739C228.679 45.9045 228.408 45.7005 228.096 45.5894C227.224 45.2373 226.288 45.0731 225.347 45.1076C224.372 45.0645 223.399 45.2394 222.5 45.6195C222.202 45.746 221.948 45.9582 221.771 46.2291C221.594 46.4999 221.503 46.8172 221.507 47.1403C221.512 47.4634 221.614 47.7778 221.799 48.0433C221.983 48.3087 222.243 48.5132 222.546 48.6307C223.431 49.0024 224.387 49.177 225.347 49.1426C226.299 49.1831 227.248 49.0135 228.127 48.6458C228.438 48.5243 228.705 48.3106 228.892 48.0334C229.078 47.7561 229.175 47.4287 229.169 47.095ZM228.353 33.0327C228.354 32.6079 228.267 32.1876 228.096 31.7982C227.932 31.4226 227.699 31.0806 227.409 30.7894C227.117 30.495 226.771 30.2598 226.39 30.0968C225.999 29.9254 225.577 29.8381 225.151 29.8409C224.727 29.8362 224.307 29.9235 223.92 30.0968C223.547 30.2639 223.209 30.4988 222.923 30.7894C222.631 31.0802 222.396 31.4222 222.228 31.7982C222.06 32.1881 221.976 32.6085 221.979 33.0327C221.976 33.4618 222.061 33.887 222.228 34.2824C222.394 34.664 222.629 35.0113 222.923 35.3062C223.209 35.5968 223.547 35.8317 223.92 35.9988C224.307 36.1721 224.727 36.2594 225.151 36.2547C225.577 36.2575 225.999 36.1703 226.39 35.9988C226.771 35.8358 227.117 35.6006 227.409 35.3062C227.7 35.0109 227.934 34.6636 228.096 34.2824C228.266 33.8875 228.353 33.4623 228.353 33.0327Z" fill="#001924"/>
<path d="M254 35.3815C254 35.66 254 35.9536 253.955 36.2547C253.909 36.5558 253.887 36.8645 253.849 37.1882H239.893C240.052 37.6938 240.281 38.1751 240.572 38.6185C240.86 39.0682 241.223 39.4654 241.645 39.7929C242.079 40.1202 242.563 40.3745 243.08 40.5457C243.648 40.7417 244.246 40.8384 244.847 40.8317C245.65 40.8287 246.446 40.6913 247.203 40.4252C247.923 40.1887 248.59 39.8154 249.167 39.3262L251.916 42.0663C250.847 42.8957 249.648 43.5419 248.366 43.9784C247.179 44.3523 245.941 44.5402 244.696 44.5355C242.218 44.549 239.834 43.5857 238.065 41.8555C237.221 41.0253 236.549 40.0381 236.086 38.9498C235.608 37.8206 235.361 36.6073 235.361 35.3815C235.361 34.1557 235.608 32.9424 236.086 31.8132C236.552 30.7231 237.23 29.7355 238.08 28.9074C238.942 28.0809 239.951 27.4222 241.056 26.9652C242.199 26.4683 243.433 26.212 244.681 26.2124C245.892 26.21 247.092 26.44 248.215 26.8899C249.331 27.3243 250.355 27.9626 251.236 28.7719C252.138 29.6098 252.854 30.6269 253.338 31.7575C253.822 32.8881 254.063 34.1072 254.045 35.3363L254 35.3815ZM249.469 33.6952C249.157 32.6369 248.517 31.704 247.641 31.0303C246.792 30.3689 245.743 30.0133 244.666 30.0216C243.602 30.014 242.568 30.37 241.735 31.0303C240.864 31.7052 240.229 32.6382 239.923 33.6952H249.469Z" fill="#001924"/>
<path d="M65.4315 53.3734V20.6267C65.4328 19.8795 65.2366 19.1453 64.8628 18.4977C64.4889 17.8502 63.9505 17.3122 63.3018 16.938L34.8832 0.572161C34.2331 0.19893 33.4961 0.00248528 32.7459 0.00248528C31.9958 0.00248528 31.2588 0.19893 30.6087 0.572161L2.1297 16.938C1.48097 17.3122 0.942586 17.8502 0.568719 18.4977C0.194853 19.1453 -0.00129912 19.8795 6.47515e-06 20.6267V53.3734C-0.000534038 54.1204 0.195943 54.8544 0.569733 55.5018C0.943524 56.1492 1.48149 56.6873 2.1297 57.0621L30.5785 73.4279C31.2285 73.8011 31.9656 73.9976 32.7157 73.9976C33.4659 73.9976 34.2029 73.8011 34.853 73.4279L63.3018 57.0771C63.9522 56.7011 64.4916 56.1606 64.8655 55.5103C65.2394 54.86 65.4347 54.1229 65.4315 53.3734Z" fill="url(#paint0_linear_355_302)"/>
<path d="M49.9872 47.4037C50.0211 49.4105 49.4984 51.3878 48.4768 53.1174C47.4893 54.7718 46.158 56.1964 44.5723 57.2954C42.9255 58.4393 41.0976 59.2994 39.165 59.8399C37.2389 60.401 35.2433 60.6899 33.2366 60.6981C30.1006 60.7332 26.9922 60.1099 24.1137 58.8688C21.216 57.5592 18.6964 55.5422 16.7881 53.0045L23.3056 46.4325C24.5362 48.0102 26.0784 49.3195 27.8369 50.2794C29.516 51.1919 31.3996 51.6658 33.3121 51.657C34.7786 51.7102 36.2344 51.3889 37.5413 50.7235C38.0625 50.4676 38.4985 50.0673 38.7972 49.5706C39.0959 49.0739 39.2446 48.5019 39.2254 47.9231C39.2254 46.6283 38.4249 45.5518 36.8314 44.6785C34.679 43.5897 32.4188 42.7268 30.0874 42.104C28.3892 41.6046 26.7348 40.9676 25.1408 40.1994C23.5933 39.4551 22.1573 38.4999 20.8738 37.3613C19.6383 36.275 18.6142 34.971 17.853 33.5146C17.0792 31.9604 16.6932 30.2431 16.7277 28.5084C16.6992 26.5319 17.2053 24.5842 18.1928 22.87C19.1521 21.2164 20.4581 19.7887 22.0217 18.6844C23.6579 17.5386 25.472 16.6688 27.3913 16.1099C29.3658 15.518 31.4164 15.2162 33.4783 15.2141C36.5741 15.1383 39.6461 15.7723 42.4573 17.067C45.2685 18.3618 47.7439 20.2827 49.6927 22.6818L43.2507 29.1784C42.076 27.6984 40.6275 26.4564 38.9838 25.5198C37.3695 24.62 35.5467 24.1579 33.6973 24.1799C33.0024 24.1841 32.3103 24.2701 31.6356 24.4358C30.9337 24.607 30.2544 24.8596 29.6116 25.1886C29.0234 25.5013 28.5086 25.9349 28.1012 26.4608C27.7101 26.962 27.4999 27.5799 27.5046 28.2149C27.5046 29.3666 28.2598 30.3603 29.7702 31.2261C31.8599 32.2988 34.0571 33.1491 36.3254 33.763C38.149 34.2953 39.9188 34.9959 41.6119 35.8558C43.1803 36.6499 44.6397 37.6417 45.9544 38.8067C47.1693 39.8828 48.1731 41.1744 48.9148 42.6159C49.6473 44.1048 50.0148 45.7456 49.9872 47.4037Z" fill="url(#paint1_linear_355_302)"/>
<path d="M36.7563 35.645C37.9875 34.9132 38.9439 33.7989 39.4785 32.4731C40.0131 31.1472 40.0964 29.6831 39.7157 28.3055C39.3349 26.9279 38.5112 25.713 37.3709 24.8471C36.2305 23.9812 34.8366 23.5123 33.4031 23.5123C31.9696 23.5123 30.5758 23.9812 29.4354 24.8471C28.2951 25.713 27.4714 26.9279 27.0906 28.3055C26.7099 29.6831 26.7932 31.1472 27.3278 32.4731C27.8624 33.7989 28.8188 34.9132 30.05 35.645L27.15 50.0912C27.1142 50.2693 27.1186 50.4531 27.1627 50.6294C27.2069 50.8057 27.2898 50.9699 27.4054 51.1104C27.521 51.2508 27.6665 51.3639 27.8313 51.4415C27.9961 51.5191 28.1761 51.5593 28.3583 51.5591H38.4555C38.6378 51.5593 38.8178 51.5191 38.9826 51.4415C39.1474 51.3639 39.2928 51.2508 39.4085 51.1104C39.5241 50.9699 39.6069 50.8057 39.6511 50.6294C39.6953 50.4531 39.6996 50.2693 39.6638 50.0912L36.7563 35.645Z" fill="white"/>
</g>
<defs>
<linearGradient id="paint0_linear_355_302" x1="55.6892" y1="37" x2="-11.1998" y2="37" gradientUnits="userSpaceOnUse">
<stop stop-color="#00D0FF"/>
<stop offset="0.5" stop-color="#00E9D8"/>
<stop offset="1" stop-color="#05CEA7"/>
</linearGradient>
<linearGradient id="paint1_linear_355_302" x1="16.7051" y1="37.9561" x2="49.9721" y2="37.9561" gradientUnits="userSpaceOnUse">
<stop stop-color="#002D3B"/>
<stop offset="1" stop-color="#002A46"/>
</linearGradient>
<clipPath id="clip0_355_302">
<rect width="254" height="74" fill="white"/>
</clipPath>
</defs>
</svg>
