<svg xmlns="http://www.w3.org/2000/svg" viewBox="0 0 830.09 737.25"><defs><style>.a{fill:#0a0a0a;}.b{fill:snow;}.c,.d{fill:#fff;}.d{opacity:0;}</style></defs><path class="a" d="M90.66,460.35" transform="translate(-102.91 -15.69)"/><path class="b" d="M177.88,221.92c49.6,28.25,99.07,56.74,148.67,85,4.29,2.44,6,5.2,6,10.19-.22,28.79-.11,57.58-.1,86.37,0,19-.05,38,0,57.07H488.3q1.49-7.11,3-14.22c2.11-10.07,4.32-20.12,5.92-30.27.31-1.95-1.38-5.29-3.13-6.32-28.33-16.68-35.34-51.08-15.55-77.36,21.5-28.56,68.86-23.79,85.3,7.92,13.67,26.35,2.56,56-20.79,69.64-2,1.15-3.64,5.42-3.16,7.78q4.33,21.43,8.89,42.83H708.37C705.21,458,704,455,704,450.33c.21-53.5,0-107,.25-160.49,0-6-1.86-9.52-7.11-12.55q-84.71-48.95-169.08-98.42c-6.93-4.08-12.17-4.07-19,0-45.44,26.81-91.19,53.09-136.64,79.88-6.38,3.76-11,3.8-17.48-.09-21.34-12.89-43.1-25.08-64.84-37.29-5.71-3.21-7.11-5-.3-8.94,74.1-43.3,148-86.88,222.18-130.12,2.43-1.42,6.93-1.17,9.61.1,7.36,3.47,14.26,7.89,21.33,11.95q115.17,66,230.29,132.16c5.88,3.38,10.58,3.66,16.5,0,12.81-8,26.12-15.15,39.14-22.82,2.54-1.49,4.66-3.68,7-5.56a70.93,70.93,0,0,0-6.78-5q-58-33.34-116-66.57Q618.42,72.28,524,18c-4.78-2.75-9-3.23-14.05-.24Q343.74,115.56,177.35,213C170.31,217.16,172.35,218.77,177.88,221.92Z" transform="translate(-102.91 -15.69)"/><path class="c" d="M187.61,666.61,174,541.85h21.26L204,648.34h2.2l10.1-74.86h19.5L228.9,595.1h-3.51l-7.82,71.51Zm46.65,0-7.82-71.51h-3.51l-6.68-21.62h19.5l9.93,74.86h2.2l8.7-106.49h21.26L264.22,666.61Z" transform="translate(-102.91 -15.69)"/><path class="c" d="M284.57,666.61V541.85h21.17V666.61Zm19.94-46.3V600.63h23.9q9,0,13.92-5t5-14.19q0-9.48-5-14.67t-13.92-5.19H304.86l-2.11-19.68h25.66q19.84,0,30.7,9.84T370,579.63q0,19.33-10.86,30t-30.7,10.67Zm44.72,46.3L324.1,607.92h22.58l27.85,58.69Z" transform="translate(-102.91 -15.69)"/><path class="c" d="M376.25,666.61l36-124.76h27.42l36,124.76H453l-26.27-99.8h-1.58l-26.27,99.8Zm17.66-26.09V620.84h63.26v19.68Z" transform="translate(-102.91 -15.69)"/><path class="c" d="M486.39,666.61V541.85h21.17V666.61Zm19.07-36.81V610.12h18.62q12.57,0,19.24-6.63T550,584.64q0-11.16-6.68-17.13t-19.24-6H505.81V541.85h18.27q23.46,0,36,10.81t12.57,31q0,22.23-12.57,34.18t-36,11.95Z" transform="translate(-102.91 -15.69)"/><path class="c" d="M586.42,666.61V541.85H607.6V666.61Zm19.07-36.81V610.12h18.62q12.57,0,19.24-6.63T650,584.64q0-11.16-6.68-17.13t-19.24-6H605.84V541.85h18.27q23.46,0,36,10.81t12.56,31q0,22.23-12.56,34.18t-36,11.95Z" transform="translate(-102.91 -15.69)"/><path class="c" d="M686.46,666.61V541.85h21.17V666.61Zm0-105.08V541.85H771v19.68Zm0,52.46V594.31h68.7V614Zm0,52.62V646.93H771v19.68Z" transform="translate(-102.91 -15.69)"/><path class="c" d="M784.73,666.61V541.85h21.18V666.61Zm19.95,0v-20.2h11.24q17.93,0,26.89-10.24t9-30.18q0-21.87-9-32.9t-26.89-11H805l-2.11-20.21h13Q874,541.85,874,606q0,60.63-58.08,60.62Z" transform="translate(-102.91 -15.69)"/><rect class="d" x="12.5" y="457.36" width="805.09" height="267.4" rx="0.5"/><path class="c" d="M908,485.55V727.94H127.91V485.55H908m12-25H115.91a13,13,0,0,0-13,13V739.94a13,13,0,0,0,13,13H920a13,13,0,0,0,13-13V473.55a13,13,0,0,0-13-13Z" transform="translate(-102.91 -15.69)"/></svg>