<svg xmlns="http://www.w3.org/2000/svg" viewBox="0 0 602.9 646.98"><defs><style>.a{fill:#fff;}</style></defs><path class="a" d="M528.87,189.06c-4.72-2.7-9.32-5.65-14.23-8-1.79-.84-4.79-1-6.41-.07q-74.16,43.28-148.17,86.79c-4.54,2.65-3.61,3.82.2,6,14.5,8.14,29,16.27,43.24,24.86,4.3,2.6,7.4,2.58,11.66.07,30.31-17.87,60.82-35.4,91.12-53.27,4.59-2.71,8.08-2.72,12.71,0q55.65,32.73,111.59,65l54.58-31.93a15.49,15.49,0,0,1-2.71-1.26Q605.71,233,528.87,189.06Z" transform="translate(-229.96 -60.05)"/><path class="a" d="M230.07,383.11q0,78.24-.08,156.48a11.9,11.9,0,0,0,.78,4.74l157.89-92.39c-.22-18.9-.13-37.81-.13-56.72,0-19.2-.08-38.4.07-57.59,0-3.34-1.13-5.18-4-6.81C351.53,312,318.54,293,285.46,274.14c-3.69-2.1-5-3.17-.36-5.92q111-65,221.8-130.25c3.39-2,6.18-1.68,9.36.16q63,36.24,126,72.39,38.7,22.2,77.39,44.39a22,22,0,0,1,2.59,1.83l66.13-38.69Q741.63,191.36,695,164.41,605.86,113,516.77,61.54c-3.5-2-6.15-2-9.61,0q-48.54,28.19-97.23,56.09Q322.65,168,235.31,218.17c-4.05,2.32-5.36,4.87-5.35,9.43C230.13,279.44,230.07,331.28,230.07,383.11Z" transform="translate(-229.96 -60.05)"/><path class="a" d="M470.8,684.36q18.46,10.68,36.94,21.36c3,1.75,5.28,1.75,8.31,0q71.85-41.52,143.83-82.83,64.43-37.1,128.84-74.19c3.59-2.06,5.21-4.24,5.2-8.58q0-22.39,0-44.81Z" transform="translate(-229.96 -60.05)"/><path class="a" d="M309.69,570l18.94-11.08,58.8,100.5-18.94,11.08Zm6.84-4L377,530.6l10.68,18.25-60.48,35.39Zm24.27,41.47,52.87-30.94,10.68,18.25-52.87,30.94Zm23.86,40.78,60.48-35.39,10.67,18.25-60.48,35.38Z" transform="translate(-229.96 -60.05)"/><path class="a" d="M397.08,518.77,416,507.69l58.84,100.56-18.94,11.08Zm32,37.47,35-20.46a10.53,10.53,0,0,0,4.27-4.44,10.86,10.86,0,0,0,1-6.15,18.25,18.25,0,0,0-2.36-7,17.29,17.29,0,0,0-4.85-5.51,10.91,10.91,0,0,0-5.84-2.15,10.73,10.73,0,0,0-6,1.58l-35,20.47-10.68-18.25L441.11,493a32.38,32.38,0,0,1,16.76-4.8A29.22,29.22,0,0,1,473.79,493a43.85,43.85,0,0,1,18.48,31.59,29.07,29.07,0,0,1-3.62,16.26,32.46,32.46,0,0,1-12.36,12.25L439.8,574.49Zm30,2.76,18.39-15L532,574.85l-23,13.42Z" transform="translate(-229.96 -60.05)"/><path class="a" d="M561,553.38A33.91,33.91,0,0,1,541,547.87q-9.21-5.89-16.16-17.78l-16.13-27.58q-7-11.88-7.59-22.79a34.15,34.15,0,0,1,4.94-20.1q5.57-9.19,17-15.91a40.35,40.35,0,0,1,19.32-5.83,38.58,38.58,0,0,1,19.27,4.64,59,59,0,0,1,17.72,14.82l-19.63,11.48a29.34,29.34,0,0,0-8.39-6.49,19,19,0,0,0-8.76-2.12,17,17,0,0,0-8.45,2.44,20.55,20.55,0,0,0-7.78,7.47,16.33,16.33,0,0,0-2,9.7A27.09,27.09,0,0,0,528.37,491l16.13,27.58a27,27,0,0,0,7.83,8.87,16.39,16.39,0,0,0,9.41,3,20.37,20.37,0,0,0,10.32-3.12,17.5,17.5,0,0,0,6.4-6.2,18.07,18.07,0,0,0,2.46-8.63,28.64,28.64,0,0,0-1.7-10.51l19.63-11.48A60.28,60.28,0,0,1,603,513.26a38.83,38.83,0,0,1-5.37,19.06,40,40,0,0,1-14.51,14Q571.67,553,561,553.38Z" transform="translate(-229.96 -60.05)"/><path class="a" d="M660.08,439.29l10.68,18.25-49.22,28.79-10.67-18.25Z" transform="translate(-229.96 -60.05)"/><path class="a" d="M695.78,456.07l8-65.52a30.1,30.1,0,0,0,0-8.38,19.25,19.25,0,0,0-2.22-6.73l-.08-.13a9,9,0,0,0-6.31-4.76c-2.62-.45-5.53.27-8.76,2.16a11.53,11.53,0,0,0-5.8,7.52Q679.43,385,682.13,391l0,.07-19.42,11.36,0-.07a42.73,42.73,0,0,1-4.94-18.82,30.56,30.56,0,0,1,4.5-16.5,37,37,0,0,1,13.26-12.54q9.39-5.49,17.86-6.32a25.92,25.92,0,0,1,15.4,3,31.58,31.58,0,0,1,11.78,12.13l0,.07a46.84,46.84,0,0,1,5.57,15,49.57,49.57,0,0,1,.46,16.1l-6.46,45.71,34.35-20.09,10.68,18.24-59.44,34.78Z" transform="translate(-229.96 -60.05)"/><path class="a" d="M787.09,416.79Q775,413.72,767.15,400.3l-26.73-45.69q-7.93-13.55-4.61-25.55t18-20.58q14.72-8.61,26.76-5.64t20,16.59l26.73,45.69q7.92,13.54,4.61,25.55t-18,20.58Q799.19,419.88,787.09,416.79Zm22.3-32.62q.4-5.49-3.88-12.81l-21.07-36q-4.29-7.32-9.27-9.65c-3.32-1.56-6.89-1.21-10.71,1s-5.88,5.19-6.15,8.84,1,7.93,3.88,12.81l21.07,36q4.28,7.33,9.26,9.66t10.72-1Q809,389.65,809.39,384.17Z" transform="translate(-229.96 -60.05)"/></svg>