<svg width="66" height="74" viewBox="0 0 66 74" fill="none" xmlns="http://www.w3.org/2000/svg">
<path d="M65.4315 53.3709V20.6242C65.4328 19.8771 65.2366 19.1428 64.8628 18.4952C64.4889 17.8477 63.9505 17.3097 63.3018 16.9355L34.8832 0.569675C34.2331 0.196444 33.4961 0 32.7459 0C31.9958 0 31.2588 0.196444 30.6087 0.569675L2.1297 16.9355C1.48097 17.3097 0.942586 17.8477 0.568719 18.4952C0.194853 19.1428 -0.00129912 19.8771 6.47515e-06 20.6242V53.3709C-0.000534038 54.1179 0.195943 54.8519 0.569733 55.4993C0.943524 56.1467 1.48149 56.6848 2.1297 57.0596L30.5785 73.4254C31.2285 73.7987 31.9656 73.9951 32.7157 73.9951C33.4659 73.9951 34.2029 73.7987 34.853 73.4254L63.3018 57.0747C63.9522 56.6986 64.4916 56.1581 64.8655 55.5078C65.2395 54.8575 65.4347 54.1204 65.4315 53.3709Z" fill="white"/>
<path d="M49.9872 47.4012C50.0211 49.408 49.4984 51.3853 48.4768 53.1149C47.4893 54.7693 46.158 56.1939 44.5723 57.2929C42.9255 58.4368 41.0976 59.297 39.165 59.8374C37.2389 60.3985 35.2433 60.6874 33.2366 60.6956C30.1006 60.7307 26.9922 60.1074 24.1137 58.8663C21.216 57.5567 18.6964 55.5397 16.7881 53.002L23.3056 46.4301C24.5362 48.0077 26.0784 49.317 27.8369 50.2769C29.516 51.1894 31.3996 51.6633 33.3121 51.6545C34.7786 51.7077 36.2344 51.3864 37.5413 50.721C38.0625 50.4651 38.4985 50.0648 38.7972 49.5681C39.0959 49.0714 39.2446 48.4994 39.2254 47.9206C39.2254 46.6258 38.4249 45.5493 36.8314 44.6761C34.679 43.5872 32.4188 42.7244 30.0874 42.1015C28.3892 41.6021 26.7348 40.9651 25.1408 40.1969C23.5933 39.4526 22.1573 38.4975 20.8738 37.3589C19.6383 36.2725 18.6142 34.9685 17.853 33.5121C17.0792 31.958 16.6932 30.2406 16.7277 28.506C16.6992 26.5294 17.2053 24.5817 18.1928 22.8675C19.1521 21.2139 20.4581 19.7862 22.0217 18.682C23.6579 17.5362 25.472 16.6664 27.3913 16.1074C29.3658 15.5155 31.4164 15.2137 33.4783 15.2116C36.5741 15.1358 39.6461 15.7698 42.4573 17.0645C45.2685 18.3593 47.7439 20.2802 49.6927 22.6793L43.2507 29.176C42.076 27.6959 40.6275 26.4539 38.9838 25.5173C37.3695 24.6175 35.5467 24.1554 33.6973 24.1774C33.0024 24.1816 32.3103 24.2676 31.6356 24.4333C30.9337 24.6045 30.2544 24.8571 29.6116 25.1861C29.0234 25.4988 28.5086 25.9324 28.1012 26.4583C27.7101 26.9595 27.4999 27.5775 27.5046 28.2124C27.5046 29.3642 28.2598 30.3578 29.7702 31.2236C31.8599 32.2963 34.0571 33.1466 36.3254 33.7605C38.149 34.2928 39.9188 34.9934 41.6119 35.8533C43.1803 36.6474 44.6397 37.6392 45.9544 38.8042C47.1693 39.8803 48.1731 41.1719 48.9148 42.6134C49.6473 44.1023 50.0148 45.7431 49.9872 47.4012Z" fill="url(#paint0_linear_362_13)"/>
<path d="M36.7563 35.6425C37.9875 34.9107 38.9439 33.7964 39.4785 32.4706C40.0131 31.1447 40.0964 29.6806 39.7157 28.303C39.3349 26.9254 38.5112 25.7105 37.3709 24.8446C36.2305 23.9787 34.8366 23.5098 33.4031 23.5098C31.9696 23.5098 30.5758 23.9787 29.4354 24.8446C28.2951 25.7105 27.4714 26.9254 27.0906 28.303C26.7099 29.6806 26.7932 31.1447 27.3278 32.4706C27.8624 33.7964 28.8188 34.9107 30.05 35.6425L27.15 50.0887C27.1142 50.2668 27.1186 50.4507 27.1627 50.6269C27.2069 50.8032 27.2898 50.9675 27.4054 51.1079C27.521 51.2484 27.6665 51.3615 27.8313 51.4391C27.9961 51.5166 28.1761 51.5568 28.3583 51.5566H38.4555C38.6378 51.5568 38.8178 51.5166 38.9826 51.4391C39.1474 51.3615 39.2928 51.2484 39.4085 51.1079C39.5241 50.9675 39.6069 50.8032 39.6511 50.6269C39.6953 50.4507 39.6996 50.2668 39.6638 50.0887L36.7563 35.6425Z" fill="white"/>
<defs>
<linearGradient id="paint0_linear_362_13" x1="16.7051" y1="37.9536" x2="49.9721" y2="37.9536" gradientUnits="userSpaceOnUse">
<stop stop-color="#00D0FF"/>
<stop offset="0.489583" stop-color="#00E9D8"/>
<stop offset="1" stop-color="#05CEA7"/>
</linearGradient>
</defs>
</svg>
