<svg xmlns="http://www.w3.org/2000/svg" xmlns:xlink="http://www.w3.org/1999/xlink" viewBox="0 0 732.81 609.17"><defs><style>.a{fill:#2e7592;stroke:#000;}.a,.c,.d,.e{stroke-miterlimit:10;stroke-width:5px;}.b{fill:#64ffd2;}.c{fill:none;}.c,.d,.e{stroke:#1a1a1a;}.d{fill:url(#a);}.e{fill:#f2f2f2;opacity:0.35;}</style><linearGradient id="a" x1="341.51" y1="384.22" x2="664.58" y2="384.22" gradientUnits="userSpaceOnUse"><stop offset="0" stop-color="#64ffd2"/><stop offset="0.12" stop-color="#5be8c7"/><stop offset="0.41" stop-color="#48b7b1"/><stop offset="0.66" stop-color="#3a93a0"/><stop offset="0.87" stop-color="#317d96"/><stop offset="1" stop-color="#2e7592"/></linearGradient></defs><path class="a" d="M138.42,384.24c0-48.4.06-96.8-.1-145.2,0-4.26,1.22-6.63,5-8.8q81.6-46.77,163-93.84,45.4-26.16,90.78-52.36c3.24-1.88,5.71-1.94,9,0q83.16,48.12,166.43,96.05,43.85,25.27,87.77,50.41c3.24,1.85,4.57,3.92,4.56,7.74q-.15,146.32,0,292.63c0,4.06-1.5,6.09-4.85,8q-60.22,34.51-120.3,69.27-67.14,38.67-134.29,77.33c-2.83,1.64-4.93,1.63-7.75,0q-77.52-44.87-155.14-89.55-49.65-28.64-99.43-57.06c-3.73-2.11-4.77-4.49-4.76-8.5Q138.52,457.28,138.42,384.24Z" transform="translate(-135.54 -80)"/><path class="b" d="M341.89,383.74c0-48.4.06-96.8-.09-145.19,0-4.27,1.21-6.64,5-8.81q81.6-46.76,163-93.84,45.41-26.16,90.78-52.36c3.24-1.88,5.71-1.93,9,0Q692.73,131.62,776,179.55q43.85,25.27,87.78,50.41c3.23,1.85,4.56,3.92,4.55,7.74q-.15,146.32,0,292.64c0,4-1.5,6.08-4.85,8q-60.22,34.51-120.3,69.28-67.14,38.65-134.29,77.32c-2.83,1.64-4.93,1.64-7.75,0Q523.63,640.07,446,595.39q-49.65-28.62-99.43-57c-3.73-2.12-4.77-4.5-4.76-8.51Q342,456.79,341.89,383.74Z" transform="translate(-135.54 -80)"/><path class="c" d="M445.73,595.28q-49.67-28.62-99.44-57c-3.73-2.12-4.77-4.49-4.76-8.5q.17-73.05.07-146.09c0-48.4.06-96.8-.09-145.2,0-4.26,1.21-6.64,5-8.8q78.13-44.77,156.1-89.85-48.41-27.91-96.78-55.9c-3.27-1.89-5.74-1.84-9,0-30.21,17.55-60.51,34.92-90.78,52.37q-81.49,46.95-163,93.84c-3.78,2.16-5,4.54-5,8.8.15,48.4.09,96.8.09,145.2q0,73-.07,146.09c0,4,1,6.38,4.76,8.5q49.85,28.31,99.44,57,77.6,44.72,155.13,89.56c2.82,1.63,4.92,1.63,7.75,0q49.19-28.43,98.43-56.7Z" transform="translate(-135.54 -80)"/><path class="d" d="M341.51,238.44c.15,48.4.09,96.8.09,145.2q0,73-.07,146.09c0,4,1,6.38,4.76,8.5q49.84,28.31,99.44,57l57.84,33.36L539.43,608q60.15-34.63,120.3-69.27c3.35-1.93,4.86-4,4.85-8q-.17-146.33,0-292.63c0-3.83-1.32-5.9-4.55-7.74q-44-25.08-87.78-50.42L502.6,139.79q-78,45-156.1,89.85C342.72,231.8,341.49,234.18,341.51,238.44Z" transform="translate(-135.54 -80)"/><path class="e" d="M341.86,238.71c.15,48.4.09,96.8.09,145.19q0,73.05-.07,146.1c0,4,1,6.38,4.76,8.5q49.85,28.31,99.44,57l57.84,33.36q17.94-10.32,35.86-20.64,60.15-34.63,120.3-69.27c3.35-1.92,4.86-4,4.85-8q-.16-146.33,0-292.64c0-3.82-1.32-5.89-4.55-7.74q-44-25.08-87.78-50.41L503,140.06q-78,45-156.1,89.85C343.07,232.07,341.84,234.44,341.86,238.71Z" transform="translate(-135.54 -80)"/></svg>